ffmpeg started on 2016-11-26 at 12:22:33
Report written to "Output/NVENCh264/results/ffmpeg/sintelll3500k.log"
Command line:
Tools/ffmpeg/ffmpeg -benchmark -y -i Input/y4m/sintel.y4m -c:v h264_nvenc -preset ll -b:v 3500k -an Output/NVENCh264/encoded/sintelll3500k.mkv
ffmpeg version N-82227-gdb23fde Copyright (c) 2000-2016 the FFmpeg developers
  built with gcc 5.4.0 (Ubuntu 5.4.0-6ubuntu1~16.04.2) 20160609
  configuration: --prefix=/home/jaroslav/ffmpeg_build --pkg-config-flags=--static --extra-cflags=-I/home/jaroslav/ffmpeg_build/include --extra-ldflags=-L/home/jaroslav/ffmpeg_build/lib --bindir=/home/jaroslav/bin --enable-gpl --enable-libass --enable-libfdk-aac --enable-libfreetype --enable-libmp3lame --enable-libopus --enable-libtheora --enable-libvorbis --enable-libvpx --enable-libx264 --enable-libx265 --enable-nvenc --enable-libmfx --enable-libxvid --enable-libgsm --enable-libopencore-amrnb --enable-version3 --enable-nonfree
  libavutil      55. 35.100 / 55. 35.100
  libavcodec     57. 66.101 / 57. 66.101
  libavformat    57. 57.100 / 57. 57.100
  libavdevice    57.  2.100 / 57.  2.100
  libavfilter     6. 66.100 /  6. 66.100
  libswscale      4.  3.100 /  4.  3.100
  libswresample   2.  4.100 /  2.  4.100
  libpostproc    54.  2.100 / 54.  2.100
Input #0, yuv4mpegpipe, from 'Input/y4m/sintel.y4m':
  Duration: 00:00:20.83, start: 0.000000, bitrate: 2057307 kb/s
    Stream #0:0: Video: rawvideo (I420 / 0x30323449), yuv420p(progressive), 4096x1744, SAR 1:1 DAR 256:109, 24 fps, 24 tbr, 24 tbn, 24 tbc
[h264_nvenc @ 0x2c491c0] The variable bitrate rate-control requires the 'qmin' and/or 'qmax' option set.
Output #0, matroska, to 'Output/NVENCh264/encoded/sintelll3500k.mkv':
  Metadata:
    encoder         : Lavf57.57.100
    Stream #0:0: Video: h264 (h264_nvenc) (Main) (H264 / 0x34363248), yuv420p, 4096x1744 [SAR 1:1 DAR 256:109], q=-1--1, 3500 kb/s, 24 fps, 1k tbn, 24 tbc
    Metadata:
      encoder         : Lavc57.66.101 h264_nvenc
    Side data:
      cpb: bitrate max/min/avg: 0/0/3500000 buffer size: 7000000 vbv_delay: -1
Stream mapping:
  Stream #0:0 -> #0:0 (rawvideo (native) -> h264 (h264_nvenc))
Press [q] to stop, [?] for help
frame=   10 fps=0.0 q=0.0 size=       0kB time=00:00:00.00 bitrate=N/A speed=   0x    frame=   16 fps= 14 q=0.0 size=       0kB time=00:00:00.00 bitrate=N/A speed=   0x    frame=   31 fps= 17 q=25.0 size=       1kB time=00:00:00.00 bitrate=5976.0kbits/s speed=0.000542x    frame=   51 fps= 22 q=47.0 size=       1kB time=00:00:00.83 bitrate=   7.2kbits/s speed=0.356x    frame=   57 fps= 20 q=47.0 size=       1kB time=00:00:01.08 bitrate=   5.5kbits/s speed=0.379x    frame=   73 fps= 20 q=44.0 size=       1kB time=00:00:01.75 bitrate=   3.4kbits/s speed=0.485x    frame=   78 fps= 13 q=45.0 size=       1kB time=00:00:01.95 bitrate=   3.1kbits/s speed=0.32x    frame=   79 fps=8.4 q=45.0 size=       1kB time=00:00:02.00 bitrate=   3.0kbits/s speed=0.212x    frame=   80 fps=6.5 q=45.0 size=       1kB time=00:00:02.04 bitrate=   2.9kbits/s speed=0.167x    frame=   87 fps=6.8 q=45.0 size=       1kB time=00:00:02.33 bitrate=   2.6kbits/s speed=0.183x    frame=  108 fps=8.1 q=44.0 size=       1kB time=00:00:03.20 bitrate=   1.9kbits/s speed=0.242x    frame=  118 fps=8.5 q=45.0 size=       1kB time=00:00:03.62 bitrate=   1.6kbits/s speed=0.262x    frame=  122 fps=8.4 q=44.0 size=       1kB time=00:00:03.79 bitrate=   1.6kbits/s speed=0.261x    frame=  138 fps=9.2 q=42.0 size=       1kB time=00:00:04.45 bitrate=   1.3kbits/s speed=0.296x    frame=  159 fps= 10 q=44.0 size=    2021kB time=00:00:05.33 bitrate=3103.8kbits/s speed=0.343x    frame=  180 fps= 11 q=44.0 size=    2021kB time=00:00:06.20 bitrate=2666.4kbits/s speed=0.386x    frame=  201 fps= 12 q=42.0 size=    2021kB time=00:00:07.08 bitrate=2337.1kbits/s speed=0.427x    frame=  219 fps= 13 q=42.0 size=    2021kB time=00:00:07.83 bitrate=2113.3kbits/s speed=0.451x    frame=  226 fps= 13 q=40.0 size=    2021kB time=00:00:08.12 bitrate=2037.4kbits/s speed=0.454x    frame=  247 fps= 13 q=42.0 size=    2021kB time=00:00:09.00 bitrate=1839.3kbits/s speed=0.489x    frame=  254 fps= 13 q=41.0 size=    2021kB time=00:00:09.29 bitrate=1781.5kbits/s speed=0.491x    frame=  263 fps= 14 q=39.0 size=    2021kB time=00:00:09.66 bitrate=1712.4kbits/s speed=0.496x    frame=  276 fps= 14 q=37.0 size=    4123kB time=00:00:10.20 bitrate=3308.6kbits/s speed=0.509x    frame=  280 fps= 14 q=38.0 size=    4123kB time=00:00:10.37 bitrate=3255.4kbits/s speed=0.503x    frame=  284 fps= 13 q=37.0 size=    4123kB time=00:00:10.54 bitrate=3203.8kbits/s speed=0.492x    frame=  285 fps= 13 q=38.0 size=    4123kB time=00:00:10.58 bitrate=3191.4kbits/s speed=0.479x    frame=  290 fps= 13 q=37.0 size=    4123kB time=00:00:10.79 bitrate=3129.6kbits/s speed=0.478x    frame=  296 fps= 13 q=37.0 size=    4648kB time=00:00:11.04 bitrate=3448.4kbits/s speed=0.478x    frame=  304 fps= 13 q=40.0 size=    4648kB time=00:00:11.37 bitrate=3347.4kbits/s speed=0.48x    frame=  310 fps= 13 q=39.0 size=    4648kB time=00:00:11.62 bitrate=3275.4kbits/s speed=0.473x    frame=  316 fps= 13 q=40.0 size=    4648kB time=00:00:11.87 bitrate=3206.5kbits/s speed=0.471x    frame=  317 fps= 12 q=40.0 size=    4648kB time=00:00:11.91 bitrate=3195.2kbits/s speed=0.462x    frame=  323 fps= 12 q=38.0 size=    4648kB time=00:00:12.16 bitrate=3129.5kbits/s speed=0.462x    frame=  327 fps= 12 q=37.0 size=    4648kB time=00:00:12.33 bitrate=3087.4kbits/s speed=0.455x    frame=  333 fps= 12 q=34.0 size=    4648kB time=00:00:12.58 bitrate=3026.1kbits/s speed=0.455x    frame=  354 fps= 13 q=34.0 size=    4648kB time=00:00:13.45 bitrate=2829.3kbits/s speed=0.478x    frame=  361 fps= 13 q=33.0 size=    4648kB time=00:00:13.75 bitrate=2769.3kbits/s speed=0.48x    frame=  378 fps= 13 q=34.0 size=    4648kB time=00:00:14.45 bitrate=2633.7kbits/s speed=0.491x    frame=  384 fps= 13 q=34.0 size=    4648kB time=00:00:14.70 bitrate=2588.9kbits/s speed=0.491x    frame=  390 fps= 13 q=35.0 size=    4648kB time=00:00:14.95 bitrate=2545.6kbits/s speed=0.491x    frame=  397 fps= 13 q=36.0 size=    4648kB time=00:00:15.25 bitrate=2496.9kbits/s speed=0.493x    frame=  404 fps= 13 q=34.0 size=    4648kB time=00:00:15.54 bitrate=2450.0kbits/s speed=0.494x    frame=  411 fps= 13 q=36.0 size=    4648kB time=00:00:15.83 bitrate=2405.0kbits/s speed=0.495x    frame=  432 fps= 13 q=39.0 size=    6858kB time=00:00:16.70 bitrate=3362.4kbits/s speed=0.514x    frame=  438 fps= 13 q=39.0 size=    6858kB time=00:00:16.95 bitrate=3312.8kbits/s speed=0.508x    frame=  441 fps= 13 q=38.0 size=    6858kB time=00:00:17.08 bitrate=3288.6kbits/s speed=0.503x    frame=  445 fps= 13 q=37.0 size=    6858kB time=00:00:17.25 bitrate=3256.7kbits/s speed=0.499x    frame=  447 fps= 13 q=36.0 size=    6858kB time=00:00:17.33 bitrate=3241.1kbits/s speed=0.49x    frame=  466 fps= 13 q=37.0 size=    7431kB time=00:00:18.12 bitrate=3358.5kbits/s speed=0.501x    frame=  472 fps= 13 q=36.0 size=    7431kB time=00:00:18.37 bitrate=3312.9kbits/s speed=0.501x    frame=  493 fps= 13 q=36.0 size=    7431kB time=00:00:19.25 bitrate=3162.3kbits/s speed=0.518x    frame=  500 fps= 13 q=36.0 Lsize=    8882kB time=00:00:20.79 bitrate=3499.2kbits/s speed=0.556x    
video:8877kB audio:0kB subtitle:0kB other streams:0kB global headers:0kB muxing overhead: 0.052200%
bench: utime=1.052s
bench: maxrss=1191344kB
